<mxfile host="app.diagrams.net" modified="2024-06-28T15:55:26.823Z" agent="Mozilla/5.0 (Windows NT 10.0; Win64; x64; rv:127.0) Gecko/20100101 Firefox/127.0" etag="QHcRGU2w6aa8ZOhd5NV_" version="24.5.5" type="device">
  <diagram name="PÃ¡gina-1" id="_Ef5QrS7YfbaBlSv89cy">
    <mxGraphModel dx="1436" dy="895" grid="1" gridSize="10" guides="1" tooltips="1" connect="1" arrows="1" fold="1" page="1" pageScale="1" pageWidth="827" pageHeight="1169" background="#000000" math="0" shadow="0">
      <root>
        <mxCell id="0" />
        <mxCell id="1" parent="0" />
        <mxCell id="26PYk7mdDG2Uw8Yli1L5-20" style="edgeStyle=orthogonalEdgeStyle;rounded=0;orthogonalLoop=1;jettySize=auto;html=1;entryX=0;entryY=0.5;entryDx=0;entryDy=0;strokeColor=#FFFFFF;startArrow=none;startFill=0;" edge="1" parent="1" source="26PYk7mdDG2Uw8Yli1L5-2" target="26PYk7mdDG2Uw8Yli1L5-8">
          <mxGeometry relative="1" as="geometry">
            <Array as="points">
              <mxPoint x="229" y="170" />
              <mxPoint x="229" y="139" />
            </Array>
          </mxGeometry>
        </mxCell>
        <mxCell id="26PYk7mdDG2Uw8Yli1L5-21" style="edgeStyle=orthogonalEdgeStyle;rounded=0;orthogonalLoop=1;jettySize=auto;html=1;entryX=0;entryY=0.5;entryDx=0;entryDy=0;strokeColor=#FFFFFF;startArrow=classic;startFill=1;" edge="1" parent="1" source="26PYk7mdDG2Uw8Yli1L5-2" target="26PYk7mdDG2Uw8Yli1L5-10">
          <mxGeometry relative="1" as="geometry">
            <Array as="points">
              <mxPoint x="229" y="190" />
              <mxPoint x="229" y="235" />
            </Array>
          </mxGeometry>
        </mxCell>
        <mxCell id="26PYk7mdDG2Uw8Yli1L5-38" style="edgeStyle=orthogonalEdgeStyle;rounded=0;orthogonalLoop=1;jettySize=auto;html=1;entryX=0.5;entryY=0;entryDx=0;entryDy=0;strokeColor=#FFFFFF;" edge="1" parent="1" source="26PYk7mdDG2Uw8Yli1L5-2" target="26PYk7mdDG2Uw8Yli1L5-32">
          <mxGeometry relative="1" as="geometry">
            <Array as="points">
              <mxPoint x="200" y="210" />
              <mxPoint x="200" y="320" />
              <mxPoint x="450" y="320" />
            </Array>
          </mxGeometry>
        </mxCell>
        <mxCell id="26PYk7mdDG2Uw8Yli1L5-2" value="" style="verticalLabelPosition=bottom;html=1;verticalAlign=top;align=center;strokeColor=none;fillColor=#00BEF2;shape=mxgraph.azure.user;" vertex="1" parent="1">
          <mxGeometry x="100" y="160" width="47.5" height="50" as="geometry" />
        </mxCell>
        <mxCell id="26PYk7mdDG2Uw8Yli1L5-63" style="edgeStyle=orthogonalEdgeStyle;rounded=0;orthogonalLoop=1;jettySize=auto;html=1;entryX=0.5;entryY=0;entryDx=0;entryDy=0;strokeColor=#FFFFFF;startArrow=classic;startFill=1;" edge="1" parent="1" source="26PYk7mdDG2Uw8Yli1L5-4" target="26PYk7mdDG2Uw8Yli1L5-28">
          <mxGeometry relative="1" as="geometry" />
        </mxCell>
        <mxCell id="26PYk7mdDG2Uw8Yli1L5-4" value="" style="rounded=1;whiteSpace=wrap;html=1;fillColor=none;strokeColor=#FFFFFF;" vertex="1" parent="1">
          <mxGeometry x="290" y="70" width="240" height="220" as="geometry" />
        </mxCell>
        <mxCell id="26PYk7mdDG2Uw8Yli1L5-5" value="Flask Server" style="rounded=1;whiteSpace=wrap;html=1;fillColor=#66FFFF;" vertex="1" parent="1">
          <mxGeometry x="400" y="205" width="120" height="60" as="geometry" />
        </mxCell>
        <mxCell id="26PYk7mdDG2Uw8Yli1L5-7" value="Tensorflow Lite&lt;br&gt;Gesture Model" style="rounded=1;whiteSpace=wrap;html=1;fillColor=#66FFFF;" vertex="1" parent="1">
          <mxGeometry x="400" y="108.75" width="120" height="60" as="geometry" />
        </mxCell>
        <mxCell id="26PYk7mdDG2Uw8Yli1L5-8" value="&lt;font color=&quot;#000000&quot;&gt;Webcam&lt;/font&gt;" style="strokeColor=#dddddd;shadow=1;strokeWidth=1;rounded=1;absoluteArcSize=1;arcSize=2;labelPosition=center;verticalLabelPosition=middle;align=center;verticalAlign=bottom;spacingLeft=0;fontColor=#999999;fontSize=12;whiteSpace=wrap;spacingBottom=2;html=1;fillColor=#66FFFF;" vertex="1" parent="1">
          <mxGeometry x="310" y="97.5" width="70" height="82.5" as="geometry" />
        </mxCell>
        <mxCell id="26PYk7mdDG2Uw8Yli1L5-9" value="" style="sketch=0;dashed=0;connectable=0;html=1;fillColor=#757575;strokeColor=none;shape=mxgraph.gcp2.webcam;part=1;" vertex="1" parent="26PYk7mdDG2Uw8Yli1L5-8">
          <mxGeometry x="0.5" width="25" height="50" relative="1" as="geometry">
            <mxPoint x="-12.5" y="10" as="offset" />
          </mxGeometry>
        </mxCell>
        <mxCell id="26PYk7mdDG2Uw8Yli1L5-10" value="Tablet Interface" style="rounded=1;whiteSpace=wrap;html=1;fillColor=#66FFFF;" vertex="1" parent="1">
          <mxGeometry x="310" y="190" width="70" height="90" as="geometry" />
        </mxCell>
        <mxCell id="26PYk7mdDG2Uw8Yli1L5-14" value="&lt;font color=&quot;#ffffff&quot;&gt;Tablet Application&lt;br&gt;&lt;/font&gt;" style="text;html=1;align=center;verticalAlign=middle;whiteSpace=wrap;rounded=0;" vertex="1" parent="1">
          <mxGeometry x="300" y="40" width="110" height="30" as="geometry" />
        </mxCell>
        <mxCell id="26PYk7mdDG2Uw8Yli1L5-15" value="&lt;font color=&quot;#ffffff&quot;&gt;User&lt;/font&gt;" style="text;html=1;align=center;verticalAlign=middle;whiteSpace=wrap;rounded=0;" vertex="1" parent="1">
          <mxGeometry x="68.75" y="123.75" width="110" height="30" as="geometry" />
        </mxCell>
        <mxCell id="26PYk7mdDG2Uw8Yli1L5-23" style="edgeStyle=orthogonalEdgeStyle;rounded=0;orthogonalLoop=1;jettySize=auto;html=1;entryX=0.215;entryY=1.034;entryDx=0;entryDy=0;entryPerimeter=0;strokeColor=#FFFFFF;" edge="1" parent="1" source="26PYk7mdDG2Uw8Yli1L5-16" target="26PYk7mdDG2Uw8Yli1L5-2">
          <mxGeometry relative="1" as="geometry">
            <mxPoint x="136.9150000000002" y="210" as="targetPoint" />
            <Array as="points">
              <mxPoint x="110" y="285" />
            </Array>
          </mxGeometry>
        </mxCell>
        <mxCell id="26PYk7mdDG2Uw8Yli1L5-16" value="" style="shape=image;verticalLabelPosition=bottom;labelBackgroundColor=default;verticalAlign=top;aspect=fixed;imageAspect=0;image=data:image/webp,UklGRmJTAABXRUJQVlA4IFZTAADQsQKdASo1BXADPm02mEkkIq0soPGJGaANiWlu++tw+zesQO4+u885Jm4+zTW+1kHC8fLSrJq5MYfpm6GflvIQuCenH/QemL0i+eR85ffmf5V/zvYr87n1tv9Xkmk3/zD7q8yLtZYq7Wftm/V9dHaz+zeIX7p/3vAh9N5ingr/neoD+H5w/xfqA/mpyJ/5T1B/6D/nPWO/2f3B9PH7D/vvYU/Yv05v/////hf+9vs//uKG93Aehe6ULi1XDTPhl7pQuLVcNM+GXulC4tVw0z4Ze6ULi1XDTPhl7pQuLVcNM+GXulC4tVw0z4Ze6ULi1XDTPhl7pQuLVcNM+GXulC4tVw0z4Ze6ULi1XDTPhl7pQuLVcNM9v3CbtVVqTU5U4bG7Y40hAri1XDTPhl7pQuLVcNM+GXulC4tVw0z4Ze6ULi1XDTPhl7k5b//fjB//RYe91VTdX7YXH0GwKKPWc6L72o+2S6WvcB6F7pQuLVcNM+GXulC4tVw0z4Ze6ULi1XDTPhl6k4mEmDyxgJiUDQ6aSwwp2gNgze9AzUFcR/lsBpRSLeLU2Bz15KHq0gqEjzxDw3dwiv3bLU2SkOSS6s8Wq4aZ8MvdKFxarhpnwy90oXFquGmfDL3ShcWq3b65nhGrqP7OZJs/eolAq3139K6+UUYMQXg3ZISf79PWqzoA+9fD//Mv1Ix63g0Oy1S2AA7B7Z/JuH81gxNwzjBsS90oXFquGmfDL3ShcWq4aZ8MvdKFxarhpnwy4QgMK688R9RyxB//V2cmbMEteNJH33maFdLvLzx+Df4I7Pcha+fUJ3yy6j+/ASWwXRWVOplDW5Z5vm13Aehe6ULi1XDTPhl7pQuLVcNM+GXulC4tVulhxi8/q/gGp6Mr+oyGF0zrEDtfM9j4tGV8hy3ksQe5KzVHR1+Q/oE6M+0DVMy38OjWrJ4Eta2p964uLDcTDgnnHioEqCpza7gPQvdKFxarhpnwy90oXFquGmfDL3RsrIOQIYa70SwTFgM/IYPH644epZEOK30DClDM6NIWVXsvMtrCtd59RKignuWIK3cickLkoTAksK5grTQAyVJDrZKB+7N04JUFTm13Aehe6ULi1XDTPhl7pQuLVcNM+GXqTcVF6dTwCggh5GMcDg9cBEJ4fDLubnNwIC6HMn0KlBHIQ1KLimqc8dzVM4gqlu0dmUUPQO0lnDRlAl9YKkMEgpDm9v4B0RYcSxeT4kd9fLfd3vDL3ShcWq4aZ8MvdKFxarhpnwy90oXFqtzZDDhfd/nvQt5fWb/DHVsauI53rZHY6hwpMLleyy5KjZl7VCv5gyw0TxfNvNK1/LT4HE31niRkJMDpJCd2TWeskr2N0bFHCpY8gMYPu5BsYFtXrGwNH8npQ98rHE3/q5KL1bvoHObhl7pQuLVcNM+GXulC4tVw0z4Ze6ULi0/kJP11YR/bl959vsbezSX10FJNMimJu8XPP8PqUVPVRb6dpfPlmi4ml+X7MxDXIqET07MRn6vXISNJ7WX8z55MTWPcxVGMUzXex8LF8+bYaWN2m+StYrDNnUD4xfDL3ShcWq4aZ8MvdKFxarhpnwy90oXFqqfOiEwE2xj81ucmfCXpeXX7nUss4FEDBF6IKbuC1N9o5FUzozKZ0UFgFkPOpwiD7fJaAVJ1XT50iEoC7Zl0xgGlOQwV9FvQu1bR1asDURlpExP3OKHYhJuebXcB6F7pQuLVcNM+GXulC4tVw0z4ZeqIR71ldrCJQHm/w3Nm0grUKLng4skdO0W16U5w6HYQoaSHmD0aRwvBOBTYZCj89RWM5gnpHTdpbGuA2Qq6BMnoEjQV2wxHEzLWnPPhl7pQuLVcNM+GXulC4tVw0z4Ze6ULWYBIDXhwKc6Q9KMLQrRkZMIP/Jpu0KyOy/JcIVppxxDd/jaum43lxvtHnRyAtX1YP0XgBxp31kuuQ28SzBL3ShcWq4aZ8MvdKFxarhpnwy90oXFqtybT/dQyKxrjq3IIkhn7LW4B15OOcMIAYt0I0uyK/sjuM0iaUQrZYnhjPLAUrNZuLbhfhkYMzBZjVhb8CokU0r0II/dZhhHdC/nc3490oXFquGmfDL3ShcWq4aZ8MvdKFxaqhA89ewNzj6Bk63TLOzsCOis/f3vdFkUm+xlTzllMxSKW8EGhFc7tW6tXlcUSDijvXK00QuAySbhjUCkSAbyxhpBuGxj/NMwWhVgAtUJ0ed9/zt2Eus31mm5eaFMZwKSV6IlzPWJY90oXFquGmfDL3ShcWq4aZ8MvdKFxaqnVtl5j2k0XABaj8svHDbAv/LjmG20Z7HUOOWDQYeThjjjMraPXoKZK9hTPUeKrkEJLN/9TQeheqJjwqVM2O4WcPn++/ulkyzE+WOhXKle8dbkCuq13N+AkjceGXulC4tVw0z4Ze6ULi1XDTPhl7pQuHXwXVxOOlzOGLTdusaKesRX5aL6h5vbIuQ68hhRGlhVycd5650CLyGmfCGSrNBk3CGifyAO3smHuyGARAGn6/EiiXJtuYkzWcZe6ULi1XDTPhl7pQuLVcNM+GXulC4tXY2TpYZSO+iAJh2D4XpLNVIL9c4aH+alK63AQuWKTEYFMCPfyxtCFn52WoMYwx3hl7o1QWFrzRnKwQN4KEf8zuinEgsCNemnWDS8NMUXQKl2SVBI5uGXulC4tVw0z4Ze6ULi1XDTPhl7pQkAENXf6s1HwMx1vU4ZNVmWVcJKuAowwsCo05EIjfsGcvQhaoKnNrUoiVIHzEeKx8UwIgmYuU1xq/P139Cg2dLGOEzJrUCfBXXmGuubXcB6F7pQuLVcNM+GXulC4tVw0z4Ze6ULwnDCykWYl2X+huYl+79wDeaaQBL2htpkVcdi54upPwtdgcWq4aZww0nNLMScGiHxFsTCG1iaEK0cQqzr6BnvTQSb+Zjpt+B3hl7pQuLVcNM+GXulC4tVw0z4Ze6ULi1VwqsB3arUa1ZK3Ih8ReFPBNPY8qJHkJy6DUuqTGXuQalQ8j+4FxVUbNaND/nsFxe+DYJ7qkNXG4CUKWozu0JEnNwy90oXFquGmfDL3ShcWq4aZ8MvdKFw6Wu8U3gKSi8b3wfhbqR7zDZHtK7Or39rsFLO6KaZs2HjTd+ADn4UNoeUloGJUIP6PidgeNjp5vFp9shNg02PfbHOPqPrU6zRrlOwJzE3NRQdm1ilSH8/+4kD1MPqUgv3tZQtq8dF6JYpSmq9ZH7EL3ShcWq4aZ8MvdKFxarhpnwy90oXFp8k/4BMH/+6s+rI8tNNCPw8dCA3j3HS+Kh6xz8au7QA4lHf22rA7M4zW8pkVQRtYk4xMg9TN4/ixC1JjXAc010m1r3vON8NUGQWHOzYP4fKOh3KcMR6Y8YGUXx8jJWlFf5GqZbGVDKFxarhpnwy90oXFquGmfDL3ShcWq4aXzQ5kBWuf6PgGQS3nLaSELLhkUhYl1LOOfX2G4jr/ZojK29h0ohw2NR8oZ1/eLC6lG5NO7jLVCIE3aB39BTAl7HeA8s7X9vaonU0zf6wamfDL3ShcWq4aZ8MvdKFxarhpnwy9ycsv05ODw7eKHAMkb3zzD84n3M+7bmFDwGvapiYBx93QGrS71O0Zywd0MMbYWgPHTVBKyRYXHACE7lBQJ5dWV4P4uSPSbKIdJS6PsAWzCEW0F+FtQxbJpwwfpVI3dfANyANBxT1cjHnm13Aehe6ULi1XDTPhl7pQuLVcNM4ZzJaHcJBDAmFKN2KpN+nLmps3JiOEuSrmgwwgFcxboDG84zcD9OjBNAFxehBHIJZ8M+hBW3hcnfpEUikEnOytD5vL7uFw+pba+CskhZelIuntDHpdE+RpY3GT1M2sfu4aZ8MvdKFxarhpnwy90oXFquGmfDGQUL/Iycc3IKo3bb6N8db1knsHBTOTgIkV/VdGV/U9m/vpr71JDuxhGKo/enXkh+6/zOUYKWrCi5MDpj1QPZyhmC29Iw4guj0a52cjw2qj1cXCx7C2oaVIYpSW/ULfhFuEggjgkIrUe4tVw0z4Ze6ULi1XDTPhl7pQuLVbtzAx/egyfgGyjer122LFW6BU4EnxMwdZgZFvZ9p/5FInRtsBD4Sd7hQ9DnLRj5L7U2PjVudqhGcSeo721eVhWCxgDyLXHSnhacXm13Aehe6ULi1XDTPhl7pQuLVcNM4usxEFzjZ5fYJMq5aPf5a/9k0vMNIcOLVcNM+GXuQI0JN7y3J8cvNiiHLeWtGQg8rDPWIeL4eS8C1ObXcB6F7pQuLVcNM+GXulC4tVw0vmTmW2gEKRtCSK93E4bZASVj6svrHtq3vPwOVxarhpnwxpLuTCywN5FJiF+u7n+6s4zONd1Hs1X3F5kbHj4Ze6ULi1XDTPhl7pQuLVcNM+GXuk7F21n27elyFYakHmqez11DXqbgk7RKTM17Cn/n5UtKwrMEsVMwrfwlYMwWrAVR1Elzs3SYetsoHFvNfxHZRYmX9IR1hpADwKSV5vzoZuGXulC4tVw0z4Ze6ULi1XDTPhl7j8pswEY8j2UA9Ql50AeByOUcGtmXhsrH11tw06RioyvALmqVcSwkAbf+XN0Um4wP6SLJTdnFjfB9x+xAjDoQnYBk4mOoJZ8mbLSd1zXWadXecVBQqr+T+Lr8C4ClyOSrplKWdO6E/u5OUyb04r551x4vudGPACiYvVXxm+7Y0KecbNruA9C90oXFquGmfDL3ShcWq4aZ8JKE5D3v/l+G3RrM8WjMRcB9EA2u/rspJi29DHNYdUIBKsD9A22/NwU/Fh7NNWEKL+ejkdkTttEG1+al+LtcWZNty1Ppih+JT8lCIvYOuSfrMkRsr9QL4ft3dgXfnWgESpTYlV+74GdXZ8mbKaNEGPBsCm//xqUvh9pJjc/vKuqA8xej8hpnwy90oXFquGmfDL3ShcWq4aZ8IkjcZ2fFUz+zxMbfJNf9M1lHLS3YnmEJ05qu7UkyeqGiSFfbpnHnXoDoz7d1uK5FEZCj0EyOm28Y92M1oryJOkpXKuwiNrcRx/wD0L3ShcWq4aZ8MvdKFxarhpnwy90nTE4egiz8eN+5dE8J9SGJBDyZ+vK84Aqrg7uWKEr9oSvRP6kDk24lQVJp7B/7Tjg8Jk7JLD6Ww7wy90oXFquGmfDL3ShcWq4aZ8MvdKFw8kpMSnqKIdPAacpyj2FiY55ZP6CJTRvmSfctLeyg4+NJle1IVItw0z4Ze6ULXDubWCsBOTTbtLg4GmfDL3ShcWq4aZ8MvdKFxarhpnwy90nXcXuMq4hab6HOXCdpMdajndMtc/supI4aqYMOGxxEG5JeQ8MvdKFxarhTiFpFxHkefnybKOaX+GXulC4tVw0z4Ze6ULi1XDTPhl7pQuHS7ABH+KYEmeJBphksA844NCYiC8MhdDCs57v/Cy9zkvZQg3Hf3Vw0xCDplSU72+xVPKfnrctDRux/vrIrwZbhAdj0jfF9cerB6F7pQuLVcNM+GXulC4tVw0z4Ze6ULXBM84F1njGLAzh5kPuKpemY2DJQd+fvrfFnFBkOC4nOd0cvjp8es3SoIUKYiDw5LEAvtkMbnFfinz3unmF+q60f4VwudxANmSHm9ewgfxeLvfnXxA7HPPxD4vPVcNM+GXulC4tVw0z4Ze6ULi1XDTPhlu2TqV6TBb83+F3SR0LfPI4kV9G2nmWfJRvhI/uahpfsfpoYy/0rtCX+z7rjLSbuYUOXZ6J36Ce/uPtxnSNEEMCsVYOZ5IFWK/ut3RE6elrM/OP2W5ZI5uGXulC4tVw0z4Ze6ULi1XDTPhl7pO0SePK4LbyH0QkUEZQIn7H8Ze0DU2/TNlJ4kIMfLXgwh7Hku0a6IRURVukgdfeAWNQWVAhdSly8F1TpkdzW/YfE4Ze6ULi1XDTPhl7pQuLVcNM+GXulC4tP+P1pB38ISrwuNBurbDaVMhbb5+6n+Mt1FhLwGr9uKblOFj8CZqas2UOxNGiqAFa6MG89D5I7EoXFquGmfDL3ShcWq4aZ8MvdKFxarhpnFqUxKQccwEYBV8kgd5YYkHdM8p64psojZ+8ifdh9BiOgtrTGWWZ70uTtX00wjKP2hi2Tjt+Cp316TA5QUehe6ULi1XDTPhl7pQuLVcNM+GXulC4tV7V5PDVKn0C17M/b7TtTCV/VWNDSLBudcSEsvFtwHMvgZe602VYSiptHV+neKlxAeQ8puy11OV7Enhus+GXulC4tVw0z4Ze6ULi1XDTPhl7pQuLVboIwaBhldKjmqfoHbQ5mjIs2UPoJZzrYpAM+liO4/r1Dg6grzJeu2QRxkNGSDimAaMf/3HMVWwEzDXDTPhl7pQuLVcNM+GXulC4tVw0z4Ze6ULi0+rLU6iCXm4BOqbKH9QNu1IhPD4k8grkv2sj+V8oYcBUwRkPbSJz878OHKGohv4rImKl/bl+mdwYa6e3eG31XDTPhl7pQuLVcNM+GXulC4tVw0z4Ze6ULi0+ZVQQUhOv4FWPytr7dPlxhIRfvT0AXa4mu0ifF9lSNlYPpRn/66As2CyKkrfYOL3JRPkRIUwfppgwv+cSTdKFxarhpnwy90oXFquGmfDL3ShcWq4aZ8MvcfghOlXx+6pcSI7Dj8iZoHMkI+AdO/veSLP9Ax1kjBvcVoUHwE2+7sEoTf7VEqiOo65H9ycwtvViNJPcGj0GVvp5uDf5cNpd3xAZgB2SnKxOcg9xiSMXtRHFquGmfDL3ShcWq4aZ8MvdKFxarhpnwy90oXFtW8GDp78zHNgVH9cVAxhoO5xRLi8vY8aVRQls9hebz64HWFLKaKgS+n0K4B87Hl41mvWdqM/fVN6oIGscYulwKHU1ov9QeSKG8uL1QVObXcB6F7pQuLVcNM+GXulC4tVw0z4Ze6UI9WNiNxxmUTE3vwINsrpSZZkcf2g1fgYPgKTi1BCcEs2MjHVplD0sWQfr3O9ITTHUE/SMNEquG4h6FF2J2eqlNYJ18WL5G4aZ8MvdKFxarhpnwy90oXFquGmfDL3ShcWq4Z+RXxAmuXnr7mj2BNCGontPydh+zxqr7348It2D8L6weTUZ/sd7VTRIGbuvdP5jhaT58n85noYKKZ58S6OBZhCALu83f+vh/5of0T+0iGq4aZ8MvdKFxarhpnwy90oXFquGmfDL3ShcWqpsnz4ZQgT3XSXCN/RxeT09gzpZitIyyP5xGwb2Pxycv193mx9iy5cJa3bsvCS4uWxbExpoeMpChdOhqzuJGycc3DL3ShcWq4aZ8MvdKFxarhpnwy90oXFquGmfCBn+sjIVebz4zq78knlCy7IpRtdBcY7jq17HNATKygiZBMu6RK6POfnrUSkobGcj6rlQNLKAURWYAEnK4q6cHGJqDsRrhl7pQuLVcNM+GXulC1QAP790IAAAAAAAAAAAAAABqKsj9DFnhjeHEeLz3H1BxSAJ8/0tJEvPMTytTiIN7hUUuBKSeH0F8NSmQ6zr3tSmL2X4GdqhsYWdCgWF/V8FBqBb9mHktAAAAALC42Y/77rIdWY0jCswj/RwJ2c2rtL+JPsh6cdXec/9sYfLQZDrHAs5iMItzHm5RMAaKb35T7AQb9tbgGQ2X3cZHNwIrFiSJhxv5DDOxj4dOFhgK2jfMjg4OA1XGc0L8VyeD8s30qqZPiQksbUnK19pgjP8YiMmLBAOyF9sfX1r0b76skitw76EO5k8FkaZ1AXVe/COAAAAQRy+WSO3zdHramUgeFluP3JkURvKSyBPo1zEVBKkra9c4hGHiDBwWJONGtfgtBsjrDj4Xt5IMkenSVHJOLmRzMZNHOkMUdhqxayV6PkVH0WtwY/jvApzUUhJjOJUUES6E61AQ1QDGZb9VO/dautyMRMOhg64htrOFnSwTip+Y13aZ+gijbAZzQOu5vN9bkk0y+k616TIBoGqdDlHH+eOaegdTctN2Lii3ZO4gUaI72zHFom83pNhF40RLA7xllnsYVk8QYQpkS8CvrrQwP0xfLQiqE9JIAIwN7kqcVprMuknP0Mop8xaI8kLGZm7rn7e+QYI/U2qRc1mz8UAy+TLGsXLF2dIZV7jLwAAABNxG1zjJAZN6wLLia35WBwhkblc7V9+z/4j7YghdsClgURJBiEFw24IUwPeBwNgVGe/POm/4hFR1k2wK30wCbtzguTp4wdCZQL2UorwJG8nbfKyOljmreppDKk8JsnwIWsEfTQcxEcK3gpRH2Y8LnTpI98iCIfxnT0hKo6Gehgl94K6B+tbrsoxajBArSuGsowPAlKhWTY2HEZCjVOCt66J4NYhHlMbGq5k3TpxwAYUH+bLf+w05ktWfjbNC3T5ZgWHcVsp8jP7ztPsT57StFm/NHalihYk4zKwR5pc3XqMbvC8ZwCzMYtx63aDEzcMVVYaqwdIWyETIje6zDMaZyZegchsOrTZ/u3+zUtEMLFC5sy5eeaVEW31FH0WOS3FjgdGiY8A3FLuU0CdLjDOWDE2Ayq0mVFDejJ8CYn9TekPnJcnTYq3I+1vQfNlsgAAAAMUNvBZR7XdVfgQ/rtfQj4Kq/AS0lilpIt7U9ikPrcFgDDFXKBVlvN54YZ39dcHVqzWpJ1a5UzyK0rhUx+caWn6zzcUDScXmjVm0NAElOj7rAI2lX0eDarDWjF77pqPtx1xB++EJvfklrMBt88gDremjeMf+JirYcWPS/jkSAxdjiKDfIxsAucY00R7Zl5IDJkT+i+Y18u7okPZM24vnTuOCpTjJfmJGfTCPvNI2cP5L100O//2fPF2OskSBbjACKzkNqPcfX0azQtISGqJY6sXczTFrSe5Ha28ENe7RGl2jT2TAAABK5hqlDLyZ5pPNRuvxCnSC9lycmKBWijkBhbqLlTfcpCwBOep9iX/HcAyP9vYLIpsX8tu/CbLkbeqHK4FBZnnIeajAU+5AWVxvYsN2fuwSCNBh2pvuR0MiaK0mHB6SirQB4Dtbw3I/uu8f8nQzkQXZ/klzPGrf1c6Ey379OZELCBnfuYwYFgbOJVQzY7oiy+avQrF9S03m2AXHxemaPch65xuwYdJ6ZhqRnyLMmeiaZDAqTJALNllO5aansc/pnz4D5cNR4zSPJ4iFc3pdLabxbdg389qIYdNgW9NkuBnme9JFK03fwCOhcX6kStGOmOJZ6KHhuYGP0D3HtxHoApEHh7MmRTNtd32ghP6DRlkMbJTYtj+50j2GJ/He5nvvQ1+2m7e4gLYfrUiuYs7LmeP1LpHd4DGUlK3+GwZ2yK+pPd0qFkLgAAAT2o9ynwy8uVxWBrhljh/DXB4GD7eHI0MS4udq/XOOAO+JvJshpvfOidIV137uOfvSEwVb7vP5WKLfXv/zpNOSeJ2lN1AXUPM1mJO3Aq8g4nMd/kwre2NPLfzQaFmELcQiWVubYUtfucqsiC7wY0oGMphKo2rJDp4q9vezhkLn16VajYTwI3XnNhQ39v7Rzwx5zPtINSEcInLJ6f9mhhg/AViyPytLy8689sBumUJrXl3RAK8wKqANl5abvD1XSaPAwfX5qCgJOgaHO4BwE2C4ZMkNIky4+EPiWtAAABx0spDETNyHbL1KV72/+IUSmmZx1cphyZgeS4W+jbZMhJwLgFde2RVslOsxr6pSXyyh6tRG5WNh4QCZ1fM+ceAtc/eT++EGJXb9ubIQL1yGn4OHl/7pU7EWMrGg53Qo9/cbymt9n8t3oTapKjsqgVtXf9ZFCBSkQ+7HZUPCGTvdXAbsuC3vAOcm8Cq/L0+gxcHd+c1W5GmTAHYURAiBS/OUZnjxtUGHUqpa2C3MR318XlPHxf9OmQ4bMlpbs9J6BBgHT3A8FsozA4f0ped/kxfTmPeTeJTHX2oYqd/q7EeMDxavFrRs7PycnFSj5TtQkAk3Kbdm6nifFL1r13CLmomkie679YYz2BTUta+5eJKCmjLdODs0xmnfrcCViSjtjk8OTsct4VAG3rdkfwvi8zkSBn6UK/GlelCvjs6NCcrnd460r8uOianypIAAAQE+uDHuBArCeQmeQ01Sj8xBvH70xmQcYAQKqdsHIE9J7j7WQnwBtEgZwk37BCcwy4807eyH/tesRa0ToUbTGc/MJAO4zOul81gNn/QQaWiUCL1506w+cI+alVzOqfY3Bt8yUzxV+1+Khp595IJHSN65T4QNz+jvtOqK3mZ15s4R6yDYGxO9Mu23qBq8mdioTVQVxytFKDLtynjfBfEXxkQu/TVPuX1WaWNvOhbFhEMxSyslo2WgR6WRokkppBj0sz1OKgOXzLZJM0bLriysbUi82P4cIzr/AFEx2lYTmv9qWL/taJp2gPfn7jnbolxfYg9d9HZVxGy0PuEFaF55Zpd+woyVyiUz8gWrpn9nAENwGBFfhDFQR0NqMWSMDtboAWoitKKkQ3KDIXAXj2lMuO50Duc6UYPVnwoEA+yVzAPctqXAhn+S7xF563tul3ktv507RuDHUx3tWe5M7FwjJDuFi6wqcjseKCYSdeCwE9eKcisV6ENlAlim5aznkn5HvPru6bqAg57XUymoorTBLCDXBoJJcF6sskGMSaLb9sEhEQEOeGLTlhwp5YIP4YM4AABTEVQOxWGRVSM2+b6ig+f98M8gF+quQ287mPPGztfAl7o5/t2uKwXwjpSoiDBpYDKvNSUv2/orslDShJso2ziRvf0aj70w2DyAPT0aOrvNgUegwfTG4Uw2FnZT+zjpzW+YwO/9VLTwplrU2u+gSB5ww6BuqJJNvXynepvBwQ0US/ULxr/J7EyqCncQNDVFsiMK61ZZIw6Cx/LqVVz6+SyT2N1VLW+NIF+gEy/gMr9o+5IJFqlU2UjuhTv066RGaRtf8bNZEKsIqB0StOq9yyuOgVPZFHowwkPKdAO//lw9XLgKRj14h3Po/49L82BBfoEvU09m+FDJDqy8bXEhfNqXPw5R42mLPvK70JiyDGi4Q/goN6iPhcOUK0qWDh1uviJseinc95IG5YrwCE2AaDNVxQ8mUK3ajRJItYVbC8eBndlU/Dt3G4d6xfi7RaMU1JOM2OgtXZoqDYOmpkyAt6AvLfV+rUWbhKMSCV5PAAABaXEgXwhZeXvEIq62SsUnvC5gA5MzjSSX9klI+kuu7++LI45UWQu7SNUvrdaPmVT3gt4KeVsSXqL9BTjJgzOGjAx7rN6CV4RW/TDAMu4yayGEwaIn2nw49npLS1Fd8gLrrIKWjuSVweTb15+MtsMQsEOfIEQI/3TyzLx43hztHF9NfCvlhfPKkXlF9Ouj2tPRqZevrCk6erwgbfYFp9Y7EeW3Y/0/Lb9xRyQRoOM6abZHtNEhwOkOek3xFhf7H2US2OVMGCpfRCNczzGm9ASkk5FdOvEIsDdcoyqgJmaMEBU4bzEhpvis0xqvMGjrfv5lrxwVcQq406jcYxCVQ/aaS8tlTpHNKZKd6YgxVdCtX+7TmXlbcW1XP8drhto4QynHaVUDlFGjpOJMc/9dyBUjhiEG1254lnylpU3sw5bozuVLrLxetZ9sIpHsO/TurBbM16sqFKHDd6kkJAnAeaOP0gHBFtGbwAAG9CG3ASoG/90Fz2I2P2uHsmbxFlL2tg0TaqvR8STbyTUUvN/EhNQ1Kued6AqpU3nq6lVS4eRxxU5ncPZEO7QX7cQQG3Kqs732O5KqCWmBP7DAmjfFRzQeD+af0pds6TjvK86a3ErasOFn8y3kWhTQv5/l8z8/69J+jYj+Fxs7i8kJ2JYDLfWyOZr2FOSuRZz/PS3nKbR1LjMrX9Gce+uEmQ8DaIuMbb6CyEsm2vsrieJrJbloaqfJkPBpymIVyLJwINFucbe+nO0sG8WNRwrAVy7bLz7joGxzfDw5EAAAK99wuOax2bqkn7OvRzPe2gpakZTaPVQI0eHzy6NABK60Y3+SpOnbJQX0uGrfSyP0+bQlljOz5c5Ke+l4x7UB03gBHDj2k7wRRgWpQzepu1CEiVRP513t8Wi1RNhM1Tck4apFV8o7utZhxG0hhFOVlSuSdBl8iWTyn98CS0uGVmGL9BwgQ5KufHuZKFwjcgy6VY7M3+ryUfUSP2xDDJscyZgw4ERNrzoYDX42BZs/Xe7SDNzOr5Ew/ggAAKU9ffQLDffOnaaTrhuXF0T+pesokx5fKjeTw9GO8WicsLDiQtb2sGBYiDmJgoXDqOAJTqtcRmFf3J2pyioq9p9krU4X2dxZ/gU04ggOSAwbNYCrmLzQtg1nDaETHEbvPkINStXoSUgyLNkEClFaXVy6bCVi8YIg7Qb3mnQQRhCa1PE3t9BceFqKAQmhdhaAFwwCgAUuuImV0WbYLdlJp/K7dbQNR6ytH+K7/jrFZaDlrIajKztXhPCPR4kbnruhbg6xSGj/tvY44m8e4IxVpTE6JChCj2ptf3hCjxS3KyHZAbPdzy6BjFC2NfKz8IN5wx25pvJHXsBgX2Kq81kjN6uAGn7EFEkUQAAF3Nc5mlYWqsmhVcxbkEqD4KyIIBRDCefrMDrVl2Wh2Hu4bObhIjPDVBYcBQlpx+zqdN66lfSwN4inneKXo0O9luZdMaW5+/dOD1+sifdYPbREiUUhKdgefO4qz5S99tUL+xntnL0bvbmh6NNr31crwCWqRxw/0bBOs1LH5lI5VpqNqNlTIin45wGZHeyg0nPFDgqwzGt2buq2FVp8jgd5Rb0gJzDQllqIk39QNxtnaa7cXkBdh3u7Dctre3SS/TsfPYZSSMGpGFx2ZAmFEbkQP43dPf+rOhJUUbuS/CVVUHsdYjLRGitbCQBm974cGC4G4AkGZJyWCTkPma7mrx4M+rIxY+iDI94KduKx9oupoR/toJOVGu8BXLqDIgUGS+eXe8TkYHuWjCusAb/mk/mj6pzNVHCPgitgVhJ6Fj1453prLIAjRjB5kD1k56oybfmN73OHlb+kpByh4ISgS6t5iuwpNN0VI6k6ZIfNjiNKqhOudX08r3bc27nymB54gAAC3J93pwJQmoA1cnwF+7CwMX+ACrTtKASR0yzLs1bELgYnDWSYo7bXqhg9e9uTQQaxXxMbz+u0YIV03MTYEOafLVd4o8scwabwYBAVn4P98vU3V1Tw2rTpsyr6sLfZtCE+u8XHqrKQhQtl6p8O+4eFMSotcnioyYU8/Wt8Wj0DLg2y8uhIqT9iLJYB21V3k/4Z+FRIosIFUUrId7Jiawc/pqA4jsqd0/t2CkH1JUuFn4Z3kKqeTCEhUMogAARi4pOv3zO80GXO4p9uHWomAZp7SEvWRlUJnheiXJdcVSwQ4a/uY/DC2RMEuG21pSV5XDxGp83eWaWwRazWnYHGY9+sI4bzFFzjCgSrYDwE10jvXxzzA5mtHFIgil0awCkg9cJ+1BXpQsnm/8u7na98iq/m9+O7biHOAEWEbKDq4s0nKwUYjgi5kyvIo2sKrAk04r0JjORuMjcgr10ScgdV9fzEKTifpvJmXKXiT9JO5DnFaQkZWCxTfSHAAALC0BI6HkhGYCRxnyjKilmOoN8idfwsrqgchvL+6c49WRi83mZoiW9dk9ou11SzXK5CNbc7nXXvYsAuimVevXrXAygBdr4D9TL5/TRANKL2R0D9f83u17jgd3HWbUCw6Iae3G1W8guTkKQ11KgEf7/gwPCdMeUrY7llzrpebHYOgkNjiuoFQzxcdFWJ+IaHIhi8qI3llDRmYoS0NwiUQlckOmU6niMA3QlTLZk3uvnphz9KYOcWFEEwwwgfVJ509izHDLiA8HjgPq3/eLQvdzfVSpP2zs8jPUfbf2ph1SiqkfNe79Cze6gFwCH7JNeMLhdbcepCccQAAEH3Ix7ySTRbrIJq4T4Fofr3gggBSURdPEYHOIyizXTCSUV34hYFXQa5VDxz9ZVRXIxrrQWKuOa38FUaVwByK9jKzFh/EhiMjqSTLd+8ZdDEgOk84p/r1vepofK1u3h0bm1Ce+kfBHVrt/i/aI89v5sZ0rDUiclsxjTw5OLX4xzoK0g3mzbQzSZmdVlV5EM0KTHeHDW3nayIZKAcX8naB8zhPFXtLBlF6jvQNuDQBPuHfmksvmIbK3DNX38DqpdUyFdhWWCUv426zTWXo28HNv3Y1ooNSKIuuu5ZbIGZMTgoOyEd89oWCDfcc4I0CuLC2X5l0xeOYb86wVctQI4xG2Z9ptcP+/994rIoZoEeTqaYoAAAR4dRUa3xVzsBVUImcYkJCXsfo7y3uA6gPwut+Xrkq6xFwAiGtrzr1oAxhdPnlnfuQLN/l2/RG5w2vULtVZ+wVgj0Ow9bpf5BSe4OYSSgKQhCkWwHztbsMZH3dXGK/S8srMudLyVHTTK30DocJj5665EpJOCwPQQeuTnmo1JRwt8HmfO3T72096YbV0DqJ9nKiJvev3U18d2OWqigkDZauxB0a8rRkAmPYdMJtdQYnql/gCvHVa7wQdsM2FG1b/tBGfSGGkPfOKZO4zg8F+SGuFtl9l/5ZiDALYsIt3/bN2fKaTihjJB/2qI/k0OI1P/ZgAAHEcvO4hqggBfiSOq6IArla7hl0TRHB9PW6VRb5+Y+9SS7g6vzXo+hVto+mb+TgZbvjSxXGbWfOf45rSUWPtM30bhEj7GL3F9RapOqYAOPge7BiHAc1RBc1QEhOqIb+jzl40qJORNJ08ZbLrVTLA9PP+i/A5op9DbMxDXSnt4MsdyAOPHGMcQeam70ifiyda7PD9A5W9wZt0RGVjdGGlmZQrJ2mpZf+QezsYOPrip4w0Po4dL0TaAhtCCU2kjNZljTSG0easED/NnjXzKXrHyrS1KYCh73blA9XpGpYp41XLJDilnjkAAAGJyLtXhfzot+3kJBZ3SfJcPCoZhjXoImCE5LBVEAq0k7UI2OhPLDpd3t9i1C9SSccmiSsmCfMd8g/Swe+UdFG9ZhsuaCKl737ylhFiUHqfMjO9WAdpA0aEknqpLkekn7gy+6bkB0BxBPEo0NxrlnQyRoJPw+9DUY0fzYEAR4TgvQ/qp+R7fsIZfyzZfpx0XPuxE0udmynZqkRxbllSz+0OMapRxhYl0ZxW7UgRMojhWNRMZyQC6i5X+RdPWzeEmQEJ/hNm6buB3f5pCKxzlq//321CWixBpky94mWu+NGPh6He6svN6NokO67qJ6FSPvQOzSq7GrEk2Q/1iznkJiWL4aHW2qxd7LprXV2I54ZK5T9jgzig5sDBdZTEtEH6ErRFNi/oQbgnfy38N21AvOALOEL2QccgsMiDdQL/Kdgsbnq8t954cpaQsHjjsR4rVfVMWapgx+kobOH8GtWv4dGpBGhFO9XKgNPL2f5TWMwSMM0QjJmEUTOu2Q05gh6uprVGPZ6xL6PAe78T5C4yBzz0nRwAAWclEefHDASAZWiBS9/y4oCPvGBr92EuybgucZHsjiZ8DCwmLjrTcd9YRdHsV3jcWtbjiiilchpIsH6br6r8aL8yNYnPYy80ZPzMaHTDwBy2zVZKl7wVr+rzR/VavEMY6LsKFhG/5K7cQi28F7pkuuanc09AXHXZt5N84FvDd5qVUnvwc7pK5t3oqFLG9H2ydf7z8mauYCxIycPdXxdIz9kI+Si7+ZvCZVOc3B9nhlQ82xniLSBAO1GSAYq8LPMwJ6qmnVqset7VPvHVc8q0bpHBIMlJKHe7Mru7kSiD6NHU77U+JSaTTEdORgrs1BgthQqT9g3LfeY9vDGnKfGZawuV6P9O8ZJbMDu3g+yfMJl69izBi+sC8ZA31MXy+rVwbujnigi2TiNHjfICD0cyegF6iq/WTw+klZZ5ze5kyMa8+mLVE7VfJaIQKk+c3+ydZuO7MaAAAxoikc+N29idhrqGZP/3IaqyfUHWbPUdUvrAZntaEKpRx//ML46nESHE8CeFOxZfdGZpvZIrdUJoaAkbm+IFiCsFWvXNy+3oN3rSOMAoTELLh0WMmQMRdrh3xWgomZwZE5w8iCk8uQNjdiJpMziYO+1JTYyJ+aY0X1SM6vhktnsOJkrQch0tcuccybW2ojhwjpinUJHjQqlo1HsU6o8jACgbs7Rxi2Dglir1bYJ8rO8pDsatvonG79w8GC1ZlEJ0tuYWsW9VAoZaYgrR0Ff8ARhLga2tDR43dDdQ3B9mc3OtAF3nC0RjTs8EYY7SSV+TrJ4hN9Ssylt0ujNbqkZn20JhnM9e+bdowuq48SMW5B5gAADIaHFHU6fK0dGzLm/oCmKhImbETWwJZdI2sbyY9aEyH1cNA9JKphbSvPQu/NKuidHDqczL3A4gGiA77WzuEUZT43bLfnRAL1np40uCELwpgS/kSCWU0v/nbsqNDlG0VZQrtdRgzOtZZ9gI034p8D7O6yc91YMqSaYd4gg0TuH8H1mIPprwJP+LS7k/UQu6icDbTz+wX1jHmuBiserEfewn7SjuT5EDgV/IHQAPtKKa5piCH8a1C4vlkDe9jYCzidND22FUahcRgG0IWvDarL7Fw7sSzi8SAgg3jalLR5/ftgFTmHR48ofEiWv77FYnnHo0GgPQ0qSyOBXDF/4Nn/l5GJBRDwtFtVsZlLg4Jt5GF8cEv4FOLquDr0q1pRIQ+xvhqtiAolFu5YOx8mX7siybVFE/frOlS/3Kjln7M4achQvOVgiyuBe1ipxKOO0eK8RO5ipYGjgmv2rj7D9LGhyImsBdTTNR+8uzkwqZNyChDC8f6KqpgMU/PIqgv2iFgpaTFAAE1i1pdNxZll3cETwlm8qX0sHWTJpw5IqL2dLZd/kUhvybVvWJTWl/1NaLLHvz6gPpqbpj0waVt1tlfhwXBKq16HakcBYDYmoUT22O8qEixwJYcMKRLV+Gm8OMOUXkuY22Zb7WG3ZYgYdzTVQRs8DzxG/hdc0tf6b2ZEb5LUrzHuIGuR/G8Lf/M+cuZ5fiCcGWjN1ZdG0iGyC2jKCakD65qJz/mZ5WeXMn43QgK950YynksnrxNOG2yAE9WxaSfhDn/bs3ayLR1HbbVgX4OcYRHxZdsL7WiHA6/rjZd3+hrhNpudYDODJzBTDVE1mdGzNiJSSoMIKP8TEIwTTqZB9lOT/xHscFkKx8efVX4DGMx1xOeQFKs017s0aMFuDRVsetF2YcojbojvvpFcvUlMeU7z/mbNmHJHditJK7w/2cicO7JmITAnoS6qrBLXB1VrgIWzqtsr8I42pZA+1XiOt+0QkQQa1rDq6f3PWpUgKOeLsYYk/jtYkunSiOqUwi47SQRNqWFLtSmhiwUAAAA8d66dz5dyo+Z3rUfoEMq5bUlW13I0OrPSfePs5Mu8MP6rOhh4/c4ly2+B+8hB+zPAPwDjxMAAHg9X/3hfojq1FlwtgLsa30YIPQqoBpvTTk/Wim/UKlmiLTmv6Mws0SJEbKNpvsb6qqUz09ZP9tM/vYbdLNtXJ1ATy9lw1PWsJ3i87zncvtYDUIdMyo40d7bT/D+G6HBbgHiVYc1qwXMgyYDk8lgqyah47/7wIaAGUOoUJmvycSEaDAwpLnFpJSynFFK/r2HkD7G3+osFe02gdo6Gf3ofTOC1qd9fKS3BuLIfzwPV8Bdms5lWw+qRv2xz/g5EopB2IZDi73P9d2TcpxTde+7bqXOXF/AjNB6PwDcDvpAVrrQRwXjxuhqtx2cv1yOAKyWIgKRyktJim8E2IePEtDnRp8J3Mvjp7eKPcJYm1eF46QJb6dBaAK64L6nUUr+BtmlIQKHKS6d8r7KM9fQK50aTsLKIpCN3AAhprOyDuFHvfrPMYAJrtPU2lGQV3ysIYses8/5PX+9qF0PTO9EnA/mlsTOpa0+XD6n78KsOHjmVOn+OMFxi0j53Q2smmcBfHhJvSyETU777aNy16hWTFuNO7gjQ1WoH+KyD3Y57i+NCTpwCkAU5JAKW/QX3IdP/OrCd+YoAnft1u+AEesRi1W81RqhU3+7fzNyRDy5WPuZ5dAzt1nJy1yvMIbNbrTlYeYAABw+1VKVE9yuIz7cCMKLYdJky59JEVE+bvHBscrwOh/24Et5sfwkGbeQaAPvb9ELUxD+1tpB2wS2OqXjJRxX9E6+B/dTXso21eFI3L8W67SXn5AqzFZ2AhL25oUbAC11N/Wu8Zt7VlBwByu1VgoXra+DznPOko/7ly3XO76yYv8bQAAAAAAALHzsXYLXsndoynPnPgS9kd3jVYlUZE62raWqabX3nRNq6vW2l5kyk4KIqXrRenL5xKdnc6BWxYg+Yigym/ApalQ5clrOmY7G/hBKHUmQk7fso/q8mblz/Gpt0ct5pYgXMdaMlKVpIiOfiAAWQLha7SnMM+JJBCRXmg2hpqHnEVfrTs2eoln4/qWijy6TSt3/mwuX0yKuF4jedCQKvO8yHesQ0HfmrVJiXrGW5xshzWpIqUnyr81hJtCmHBSHCeKmEUlu1FNn6L/JRa8C2N+LQ3xPTvRofQkhzTs1hUbZkvb+AV87PB+g7FJ7vDOSCpWSnvA5z2nuraPuKeA7hWzjRBQmQ+9jRgbj2VpcFHZxSfndlUU0V+YpILSZrELBpf4k0G5/gt3CLA+dRZSY1brUbuWZlOs8u5FdodiwDIomZHDsNoFIXEAAY7uB4WXpjDd7IvYq3qfqtPETtl+oJCkftB1SxkQDQAIcFgVqAaU0bQ+zQJs0PFuvOVHTurEPOtSeIEA9svrD7iaIMtudjbTUto9yU0ytOgm2w8BC/HaVKTfsTU+r56OZuKcSITP4KkwVJex3iYDniW/pDqKOSqRNhIfNe26GhVs8on33vV0YoYaNGjIfJ7yBBRQcKrawHIs6SPTO03OQbS6LRPVpBGArwm5bGaof8Gopj49NW5HdFuBQullZwAALpQXU5QuvPzWm2yKQJ5zD0HNRc9oZ2D185BgEBa+KsA3Lk1VpfM2W6lsksgCyKNHO/wI9Hr8rMT6xlWSIk/gRYZYU77FFxlpLOgDTgKBm08x3GHoOcTjn+MPDkr5oNItOVuzTLPfktwlQkkD2ylpTjlIWUXxw/nk9MV/iCXs6uAmOtKFh2h0AApH2qXcves6Nx2LpH6yTLXUpFMVooaeYMnIzOZhddro8Eb2kBfvsl0nI8f2PNAJ/SadryE0hd3REEgnyi66DzL1PvfCVXvgid1pL5J7esrNT+E/k+UsSnb5xV04xYk4iERnIFevHT/3bFHjCjM9uJnOapYJUH5R/m/lb9le/I1I6l76UK0ThNkXr7FmVqrYq0xyRu8RZPgr4v4pzGxLfEn1/CygAo9pl5djzKKL+qlgbkTok2vt2nH2HzQ3v/q23duj0ikdZsCvi3g7mF3Fhop1yy7//1vPqQlYZyC93RsJnaO2abwsyKS2pJtLY6AAOgvawHzRHWtbNIqbekIyJc6EzdvT8KyzEJR8+9oLxjTVGf8BzsK9oi1xbATZWr1vwpbaaf9VapQf32+lLA46KCaLGNaBKgjvnLhbTP2o1WEcxGLqRmBI8K5Tk1NP9CkdEPJGaCyaS7038tMk5EuIYGXO7S6FNsqvUBPwJ8j7UN5PgJXP7YXj8/M5mbFKQfR3zsZq5NN2vCDBIftVXvRE8PZiv9Q/ncP3x72mAG16xymelV0d7j43qbkGzqttZpKCesS9SX/a/rYJEJisx5a8Zq80tu9i/cpp1wrfYvNetRkxpu3CvHJwHqdOlxuoZrfzFCh92EA8uibRJ5RIigqCp0dIUizUur0nMW0gvbjwfO18AWC3lzJGUzwLnKwktfPUYzG9ML9vsT8WJpRhJjmC0+fJvho3sRkm6A9NtlD/xrLI8+Sw4famK2ilTZe84yS0HFqB8UPtQTod9Q//W2zU/4185oVcRbM6yP+cd2rfJOZWUc3nZ2wlDoFvRWL1favpdYzOXziinoFujOgrOxmvBxUdg8cjDUtV+WgBzCuhzBe1/HZa9Sm10IkMkXLp5BQsKk74icEKzkA9bCQRkB3yEE1lLr6pvwig8UviQZfkc0FGIt4fSPqZHWgI70vsimxK86siymR2NAz8L2/WRho7IaQLdeJAqC7SnOaojpmWBX6a4Vseyr5auZPNh7kMcqFdFLyJJH6h5sKR5fKgig/ZkaZtHZtSR5d3NHeHw0MXFeas4j+S78Dhw139bbfssqQ9t0sQInYjNe4wuB6StmIUKFIwb5wxSxKYzdLcyh8rFCqT7ROMnPo2zVHbR/mERBywLBO4/mmJHQnfgqRv3ABwAnFYE0oLsZNYWJe+bF9Jb3/FoCs63qr/+YrTGvi7KI55piVIp/RiXk5juGy4SNVbSmxZ+S5usxFVqasM7DYRnor4rifhf4fdccsKP/J88fkPz2Vlr1SGh6iPpL3/3Zh9y/M8Ji8Auff2iqrKNV7tjKMdARxcogIW7YLrhqEbSvYc8KYEcybQX273QO0jA1HHzOX14UVRQQYXQy+CEv4a0pIBQe0HVA2HSs7M5ZlMSwzhcS/zAdy8q7mtr0H25XWKv0w8MVqbUxmzQjfP9AVQyF/GJb5ezuCe43WNJ/3asPFsxlZv4QmRSpmrHQtBAajyn6TDP2f8weDvKQEuqPeGm2Ic11Em3HbukJJRYgcdSAXZjuVaSLw8MIYo8lPGDrfxkkCC0H5bSTLHmOvpWOvpsbQ0Q3lHWGLaax8JNkW5UFXFFJuCIiB7+hUmyJU1OCcU/7w3RRMPy8B5Lo0GAUpJ2PjrdubTr2OOvuiRG1UTHKjdYXjOuz5AxNT+BOSxNza09n/0hcSAleqXcKUdvvnPUDL7ypwdb+oTfYwRiBrTOy+uSd7DPtsMeDpLRF97TN/TifKUX6JTvR/kabAsvRCb3IfYMctKJdzZga6LVzjdNr7Nayl0eelu/EJ5quYxYWtinX9ORFJriX7sqAlGk4Yt3wGkBuzjmVASq65vGHit8ssxedaicsCf9EPeBUZAAAv+k11ak0hKYbLnrKKQh8xF7XZbWtQH+J5CsmTF/9zxYqKLCGJKmJCWUvzzoOu9tfPgd/ouzIIu4rkdlasDXfsj+x3YL1AVEc5J0wMSFb/YbtJMY4v2apmb45WwyaW2AQkOO7XOCN+tl6PKbkWAT/nXmZpnvdUaRnDYissfOJRu7JidMi/ERdEfdE7uJuQWdSv6KpGZ57D3yVt+ZdW2rMavZAFM35o32FJO6i5vtNd7xqQf4f4ibYOSqTqPm1e9r1Zh4OHtgtxn72h+5WmU0JQ6AolfXtbRctaI+5pbAnlXL2OPRuJuP+2FbuXlAKINtL7vNrtSKbOznU9KVpqciUedlX7JPEnvH3mjmDmWoEIoUUX5Sf/5E6WRBpwt3oZNAZTp019iXNm4a07XX4hwmg6utLswfzlf/keJ0BX2q7nUwZP/koqOG/ZYW1/QPlfeQdwPtOHTige+LISF/9X7wgOz8E/+GUQGTbdT9Bb+F2vKk374E5sh5DJIOBpk3TT0IH0dV7mkm5y+9xbazy8X36MQuP9avDCHqFm+UUZHQpUvMJS34Q5wUpUd97nBeGK0s7mJHmgmIll0IHiTWuyOcXYc0nbECMRxj73H9DSersuusfoayBPMVCGp/1/Cu2T4XV/gUX4o03ObrOnRKPvisO6VfBcPioCU9SdRNApJZegzRoPueztVf3wQb9MyXfjTMvgePieE6QynofIO4jrZwLt7GPAekBHsyKNU+Zt81QFHEi12ZJoGJ1kd8S4jhc9Clywi4fGxp7mvpuv/dKJl+jPGtf92viwRp8nz/hKSanDeyO+8XLWlewsGULdrMw4cNqVF+Rjr0v94uQ7rRrDcVPf2mmHHuI5hA+9Yt3d0T5SbRMRUADZ9p8XyzH92OoHpHcKIJrAlGQeAwhxxTgqkoukYf68ILBc01cz+cJKgb3145pVgXxZCFMJirzyf0bcUmyOfxazLK2pPmywAD0UTJizPjgsCoFugtIeaIKdwNTAf3IX2UL6x6qxQpuqAs13sa40dZWHqmxOsnErxre16LrZRckCK/VjU02dcIqWVKkLCbyigy2qQlYC01ozPV/nGbyfaqbK7bV4c2nnLm2znlVxv2PHs+q2SXwXqB2ZFJ0LelZ+BZ/o88L0Wzrh8quaexOdl1ttS7DgNVXEhg1YFdMul2Dzgm94fGXQiPL0E5QWDxJpOozNZq826tkpG3YkGitc9+sP1cEzT9sb9yobwLYKZIOcRMNgCyWtNk67BIuM/C79sKbbR7+1zgTuI/CuOyQKxHwjvu7uifHicGkjn/hVPqxwj11aAOEAAAJmLqWBxeAX/4qYI2MrHNQm9iS1g5yRvOIIOxKC3vcjxpbTYKuEdfir9J0bqmAWvu4/wjfsbKNKjkNYujDUM2OShnQgi9+5g9tDnj7qAPyWR8ksxg5bbKT+zvOq3xanIEqpRGz4PZg1Jy+D7Nxt8VTIaHeOCFyD1bkR2fHiWNFyLalCtNabt2tOHEGU1MPmghLyaG3uxAEXTCJ9coj3zrGEmyA7ruqHWLdh4xtMzjG6vd0UP/+nPQaOVmZa6T12+mkxjNTyStXDF12sBtsmkCadGUbPZv9/AG0xhsecEe1+rECoMFv7t8KtqomhYYjMzfYZyAjVk+R2tSjz5W+uKfigFb8NT8nwbbfNdXZQp75gtvF4sO58zFfHpdBuPJGA8d3hiwm2Gm58cbTiSDPXcrJgAAQAGbe4vadnI/ly4xyF2zSAHEIdmC33GgpMJxCRk6vkH6abeWrYPiWS3ff2Hap3HXOdwXWhFsfRiv8mmu811LOePZn1G464huI1W47NYmNMbfAy352oDHDcPQqVRAe+djH64NjulWp914ADMLQVKB60feIYYJXbouuNXibT/MQxmmOw4y0XK40n51q2GzbjCJ8naZE7LQe2Tu3ZiWInfhllM1QfGjpdmBuYS2O7AvOwgAAYRd1nFjmSNBr0OHJ1ZuMaMXz+cJeyIlvEPcbdP0vBHyKAt7K7J0jznMpqqMrssNFWpB0iW+KHEDyyTqhIizDz/W1ZDSjl5mW1L9GjieCsNABcJoSXLlb+pJmbJqSGZJ6qpw0S88R3JXecnCrwl28eKE77UE8wjOQ+L9egZRaH08cc29dEQOqnUc7JTwhxBhAbZTLdvafj+/9feZ5DkQkwVvS0jeetEAAEDg+yvK8NAK47Cd92b85DpfrJx5EOVZZcMUmqMOLKZrUjN92Omxy4QSdG4LDqVkJ+sWB2JpMQokHxKu4qGuIkHvDaLV/A5TLL9sM4ZddWl2h80v6/c2N1Y6vW9oWzPmUdPdovVtefvoiOUcDKXe6kICS4mZ/qiuEoH0nyElR2DSWeGIDBMUiauNTodaYDWeuBtcUzVhB3e6wkMKEiPNCHesDIvCo47Qyhwh5XAD24ob2MCAAFVwF7doRGAQW/7e2BQWAKURMbNczhuMlMEnaV+I5YtoHgAiG5TwEJutfg99b1frB8cRw6V5LJAMxYvZgZ3wC60hWQfbsVdMMp1fVCMzAF8zSYg/khowKTAE7ifFH85P1irfXt1u3E81vNpEnGb7yeQWE3665LK+UpnruPPBjnkxh+wOoQLwhOSfjC+XLx+ZE5TaMNKTgvJuJQhMJkCS4MKuCUnQKVpzHbDZmarOBE4M+xy6vh3jzHrRsPSmsfwVUoWDlucVzeGsAftrfj7rqRUlh9m9O85GgYWFBi/FDP79PUdX40HRA26KAIzLAv5Mk2qnHp7gOI0a3hirz6sx+lA/ERN3e+A7HrdzUKrgIR3MUQXWCXBX5d8ovYnAJVmocG/lHp1+q7Xxct9OkUdkRiVsSnmiIr1ksFQl4ueajmSF14HHSNIUAAMK0o56mNPnSo/smXskrPLeP5zhV/90f7ahWFiw3X8vuPxF5la8mPCAEdxNXkuDrkV0YUddMgKBNhG+b/cUXU2ezKNsE7fyjWAfUZl7XAAKbliU/1lMnCmzoP+4/s1pS34mS69aVLv9X1K/NN9+3IMQ2BXef8Piuc2pwv26hPH+p/rPxiJzt8Xy4J5DnHDRw0kTsxGnhFlz//d/O60TV4OG/jbqvkyhbOR8qsWRx43rc6fICm7RQ1ua+CasvXbYevR6kkvf+rv9Q4iSYEEDlNiGcqWPvHrwz0xet8JCCx5+yfr92TOPJP3Mpqddd3aVnKm6/sygqCx9GdqYQkryriQAbhSmF/VxJ01PFO7o5rKRaIITXO8QQUqcrYBlDvzxD395ZPOJWhbG3HO8he0oI8yFs0WwbbrYHJLtwuzK1kL/MSQCVKgmekOYKET9VEwL61XtueA9ntX1K0Me5hjJxj7axr4n+u0ofh9s82eWlOmvXqy1noRs25OD/zxFfcLRh8wvwSdbSkuiW9FMDfB9cCkqUumWP/eKG5kh7jAqrFTR2yEwgAAcYGJOhVFGxNrCbSmLWkBOsGv770PaHIi7C878+YrvDuhWYx1ca5MrOBjrkKoXao1Q/pOMvT6+1SpUVAEABWde9hvlr34BnVG1Q3DIYWAN2kPe1lVc26yif5eRc5Mrcjf5rLYM37TJbYtwQN4IIDgQ+nHzapsC+JzYACGYSRN2PAZq64CX0Y2WdFFLoCe8kVBaShn8v1dsb+ENK1+6VAuUIrtRWwT/9v2fhloGLuootPvdCx+Y8zewLKmTSubhTJbxJ3hlwvh6d6/ZBNWWkWJv9pknc9Z41+MHtecP/Bx/111N0dug+H9DX6lDq0OJlAS9tghnLuI4NTsLP5ijTSOH/S+AHOV95/Y7yxgcQtva0Mr1L0Yy8WxhOxZUnHOD6rrZaSDpb2RmjtduO3VOlkNvSD22MaaG4OPVLRJfxiyfP1B2bBzoR1JJ9rvut60x9cBukodxc/A2Sg7NfHoRauE1rzYp7c+CWy87wcfjVdfd/i9KWpqvq6TKAvm6iNegdtCpXsPN4U75Pw90cCAwlru1VWZMoTiXJZ74jcj2ZEzLm5s+rsLwQAAxo2bA/28BNpf4hbhCYCf+wFnj4AtpNaLfxIRhk7A0FYppeVce6jGwbv691efH9/ET3i2aLebRpOHucmQFG/4sJ4oJf6u4Z29ywd0M2P5AhOqWh+DLP9F9bXKx+Ld2pgHCSmMQhtmUXaF7d0IWxpESempWlD5S0Ez7nqRsVrWXbq+sH3DfirIysYjHfAHV1GJTuspwBAG5G+kSstXKlUio6Y97tnaK7LdFZE928L/lVb9jfvyK3EHVBd8qdoVAo/Ba23Eqw0/yB30dCQHLXyjxl62S6zUufmBzsZ9/KZBdMC7TT8ZaYjICBAAAA9mTIcCAInel94l7OpQbEO6vhh1D1W+biFIy+M5xtEOE0gR4H1/nu2wpJDD1qM5KLAIeuyRkEJzsL9DHnlghZIsR4eF5RB0KyeK7Qia2pL7XEZQZyHiwUVT54r1uDtapBprK+oy68VGV4I2C48KH/mTo8tWJmi7Rto1HCNiYYuaDcNSTtAcOzE5f9oGqgAAAYyGHs5su7odbKJGmZpbLlwGlPOfONJGjWSXQ4wQe8Mn1Sw3iHKmdFoM3AjFWLGqTfW8vDn4tNphnizraUdvW4jtu0OurRfh6Sjq9Y+8Ok+nwsep6i2vWAq66yislEMHAAA8W+QAYCQYqk8yQhWgsB6T0Vwq8okFUkn9tgOPTF5EcAaMcSs2yGMuJnzjnkJxt331s1cmWgR3bClllEA6ivUEJZwEejp3dwPvVS7GC/1d1z8Qoo+Ggspr7Yuu/PvYZ40PMNJsgO1lmGxatULBdGfbQtdrpDgAABv4iHegKBP09Sbn1FOjCWgSt+SJJvsjMtcmem7Cf2xVIcQiIKMNJjg90IXV2Ic32tJ2s+yMqOfAOgD5wqtgzM9uFOdJKtSI7bW2vJtKb5H+kw0QKYZrOmZAndTJgnpBLw1kHC+K8qWChg+5t5kJtvWr368TKhPgJ3IHg5OXpJEWDQ5IQKcK/WqX3j7YyZPvOtReotxOD4XxoE/7jiZH73p79owAAAE6fE4u4RC58rlhg8SIIfrk2cRdrwr0QNoIrUHI8JLfeMf76GfAA46xJDoib49YWU+2QLbmFVNX+UH02WVdMmYW2EVQ7GycfRIKa9EgS0glTSnkXdQ/GD+60Nxyz6esGOpB9nAFfQ8XYtPZvrxm7VnZLfUqxHaE7ZmqKnyNF3OyiTI6ZuHSgJ2lTORVJuoNHjNyxkESVN9a0xjAxLbnPKe0IOaGZT6EoygAAA4SOHjeMLUrL1435hEHGOg/PDskoFQlB924nYP6LEnZLy5zfaImA0fpDoCF2e0Ta/olUmo8ENRlAdGb38SNVZPliPsaZ39KNTN0qX8HHOZveaHKsL2qovX84G3CZQJh4ptFFQDDBhaoMovYLDlU9CbqEDLMkovCXlCCZpIGqN8e4ic8cVe6TNeyzSit1/0p//1oS+blNvNu1w09Z29ygjyJSoCys5aFSt+gAAACPiiN5Ldl3rYO/z82c4Mi6n9S4yLamJb9UzKvVkmonXpsNBiPrbC9EoqJB3iahTIR5vKAftv33Fv0urz6I2ephMWvIpOyHgtvO6o7ipZyBqcNPqzrO48efbyvzlKOXsGvxBzbJtsJg2/GMLDt5xslUzABsSL5tS7gmGduD7AGNJS1QVMpBSr2pQ8O/VUI7U9Sd19/6klngiDIUGlFLZxLx0lOTa/LyYX6BmzP3ghtqCFIdUQPM39Snv900LKIy1aBgnX8amdPeNVJrIJQEZYfw4bcuwQ7hLyc5EIPKS7VmYOAW2Ayrd3aZrcmTA43irHZuS6sUXes7C7OUn5ofCeXih/MD4wR6GahMaUg+Zto/D3XqP4k9XJtAAAADNnEO8sUKhBEjsxtiY6oYQfrh5JRZStBMFprzIWT5j+FnYDFxRbHvOXKafQij/u8SOmhGNHvw4ip+p+BP3rHYOAXhMsh4oSFpiGidDOQIJengl3+kLuSP3td0cSKuZLwle4C8/1sQUpDtraO4gF6bBO72pf9rcYUjNEQHdRUlGUcI/qzy0YSmNYnliOKc7y+58c5M3tFEUhFay+xPRxm4nS056gKHls4hvInNBecN0zYCGG+D8zYABVwyOZyO7zkRV2GKfGVawEkcD7yHMv/3YPHEXWcbOj8jeOAAADN5/Ak78FJi9uobPy3yPM3NPUVFgNRS+/YH2T5+ZoVyvO791L4c7pdF0faGYOe+hJNYkSKEaCQKqIpwATf+NVr1b9sLpj4CvZeMfkywDumzK414Npg+UeElcEGLOCnHhYpBh4oHCOHMVkxChd/EfuXPndIFKPFsqIRB1qaEIQdc0sIhnLW9UPRgxtmjlzhxepTkSwpeqmMynhg6pd+TeGq0ctVmB5+7MUENTBwg6Ax5H9MaZGmxqjIYd79r79L793d4qHZJwhzzVEEla6zfZZ+yEf3jBUpEtJe2ZKxUelvEXuMMKA2AZ2tJyRKUBJCAAAAJ42vOlwC4/wmSbJzpJm0UyNEAHf/5trKDMk5bIK4foyV68APFRMygCFJtI8PhsRKm7sGchCYMRjtiQEHDOOTQV+iUbS+tZwMfclk6/S1aDAJWTCXyxIDb+6kSjHfMQoWwIuFjwBVfxQIqACGJ5XXOS3qlapbpPCX3KvtTdtO8Iymm0RVAmGsCwH30Zjmuv2z6h27CjUzWNgHxfopRb4jshSejrdzP+cnA6mX1Boe6gmae+F3Mf0Jwkn75kTOOB8SCcA6sS0hluNVgXPWHjDmD1DVOtJEZ7zDBfceDNvuUz/OI0P2Y0pP+8clEPeT/tezxVXyJgyiTL1U7jNrQ5fY8csLC2Yden+xczlengP5RQH0W05UwP0E131i5+zifsfDg0PfeMcE/VO7U7qyY8pmD6JQPmq5QRZ/qxhfo6geflu7G3MJa0mq7I/AbC+c7a0opxCpSrvzY3s6o3kEvd39+TcbU1OaiW/wD4gAAADzysegXwmEPzTwPdyfvGRxMcawy9wmZNEJIVXq1+V7sHc9Z74QngPVSg13TcWYgHGaQ1FUvvLWYls9h/iTfeHG0hm0wrUS/R3Y/zioA/es5X1bfB22vmkK4lO88cPcRBx4ZU9VV5QBwXj/wNNSAsd973h0WGcdzmhCYk2ET5c2skyZ+DvIUU0nVnsqMRqI6kpxjProMZq+9jjDCxCxeXRpG79b3IbU3Xc/fkxR7xFXOpxpATly0Oe3Zu26qFGGtxD9Hx+Z7eX93GUo7ZNo33AIFApoWm0B8QWJ0aLLwdBcEcVNAySBI/Lppnb/MoQXhiN3kMM1HduyFRJIOOlo06/+hp7YUzG/n4zCgAAACLZORZZmk6M3DHmSTYcR4eMm7BrUdjc3F9jEa9sdAPO9GG4coowLr73T68I+B16706k/XSWupIcDGeMu7DXJ9tM+6Dl5Yt5RLL6fm0MxUYEGA1yXp9qCIVk11vAt5wcFmfCaYSCsOhnw1lLiJvzYP5Sa5revMlN5LB6r0kxw95Gg9wPK2QDZEhEkTx/n08r7SBnbJ8zeUetJlFi0yKy8McZyhOpdpx06hHTenCgr/WIGCMxdoKCjfvslQhf2Z0A+EhNNU8hbCgjcV3LbiWvL90H043r8HbgkoimlvBH689XFsIlcp0sXnZostGFk1xgSzHZ0q9zMw8zaI1wAAAAA;" vertex="1" parent="1">
          <mxGeometry x="68.75" y="390" width="136.33" height="90" as="geometry" />
        </mxCell>
        <mxCell id="26PYk7mdDG2Uw8Yli1L5-17" value="Flask Server" style="rounded=1;whiteSpace=wrap;html=1;fillColor=#CCCCFF;" vertex="1" parent="1">
          <mxGeometry x="660" y="510" width="120" height="60" as="geometry" />
        </mxCell>
        <mxCell id="26PYk7mdDG2Uw8Yli1L5-18" value="Posture Management" style="rounded=1;whiteSpace=wrap;html=1;fillColor=#CCCCFF;" vertex="1" parent="1">
          <mxGeometry x="660" y="440" width="120" height="60" as="geometry" />
        </mxCell>
        <mxCell id="26PYk7mdDG2Uw8Yli1L5-19" value="Dialogue Management" style="rounded=1;whiteSpace=wrap;html=1;fillColor=#CCCCFF;" vertex="1" parent="1">
          <mxGeometry x="660" y="365" width="120" height="60" as="geometry" />
        </mxCell>
        <mxCell id="26PYk7mdDG2Uw8Yli1L5-22" style="edgeStyle=orthogonalEdgeStyle;rounded=0;orthogonalLoop=1;jettySize=auto;html=1;entryX=0.791;entryY=1.056;entryDx=0;entryDy=0;entryPerimeter=0;strokeColor=#FFFFFF;" edge="1" parent="1" source="26PYk7mdDG2Uw8Yli1L5-16" target="26PYk7mdDG2Uw8Yli1L5-2">
          <mxGeometry relative="1" as="geometry" />
        </mxCell>
        <mxCell id="26PYk7mdDG2Uw8Yli1L5-24" value="&lt;font color=&quot;#ffffff&quot;&gt;Robot Speech&lt;br&gt;&lt;/font&gt;" style="text;html=1;align=center;verticalAlign=middle;whiteSpace=wrap;rounded=0;" vertex="1" parent="1">
          <mxGeometry x="140" y="345" width="60" height="30" as="geometry" />
        </mxCell>
        <mxCell id="26PYk7mdDG2Uw8Yli1L5-25" value="&lt;font color=&quot;#ffffff&quot;&gt;Robot Postures&lt;br&gt;&lt;/font&gt;" style="text;html=1;align=center;verticalAlign=middle;whiteSpace=wrap;rounded=0;" vertex="1" parent="1">
          <mxGeometry x="50" y="345" width="60" height="30" as="geometry" />
        </mxCell>
        <mxCell id="26PYk7mdDG2Uw8Yli1L5-26" value="&lt;div&gt;&lt;font color=&quot;#ffffff&quot;&gt;Virtual Robot&lt;/font&gt;&lt;/div&gt;&lt;div&gt;&lt;font color=&quot;#ffffff&quot;&gt;(Choreograph)&lt;br&gt;&lt;/font&gt;&lt;/div&gt;" style="text;html=1;align=center;verticalAlign=middle;whiteSpace=wrap;rounded=0;" vertex="1" parent="1">
          <mxGeometry x="91.91" y="490" width="90" height="30" as="geometry" />
        </mxCell>
        <mxCell id="26PYk7mdDG2Uw8Yli1L5-43" style="edgeStyle=orthogonalEdgeStyle;rounded=0;orthogonalLoop=1;jettySize=auto;html=1;strokeColor=#FFFFFF;startArrow=classic;startFill=1;entryX=0.5;entryY=1;entryDx=0;entryDy=0;" edge="1" parent="1" source="26PYk7mdDG2Uw8Yli1L5-27" target="26PYk7mdDG2Uw8Yli1L5-37">
          <mxGeometry relative="1" as="geometry">
            <mxPoint x="280" y="470" as="targetPoint" />
          </mxGeometry>
        </mxCell>
        <mxCell id="26PYk7mdDG2Uw8Yli1L5-45" style="edgeStyle=orthogonalEdgeStyle;rounded=0;orthogonalLoop=1;jettySize=auto;html=1;entryX=0;entryY=0.5;entryDx=0;entryDy=0;startArrow=classic;startFill=1;strokeColor=#FFFFFF;" edge="1" parent="1" source="26PYk7mdDG2Uw8Yli1L5-27" target="26PYk7mdDG2Uw8Yli1L5-28">
          <mxGeometry relative="1" as="geometry" />
        </mxCell>
        <mxCell id="26PYk7mdDG2Uw8Yli1L5-27" value="Pepper Tools" style="rounded=1;whiteSpace=wrap;html=1;fillColor=#FF8000;" vertex="1" parent="1">
          <mxGeometry x="390" y="475" width="120" height="60" as="geometry" />
        </mxCell>
        <mxCell id="26PYk7mdDG2Uw8Yli1L5-28" value="" style="rounded=1;whiteSpace=wrap;html=1;fillColor=none;strokeColor=#FFFFFF;" vertex="1" parent="1">
          <mxGeometry x="640" y="330" width="160" height="270" as="geometry" />
        </mxCell>
        <mxCell id="26PYk7mdDG2Uw8Yli1L5-29" value="&lt;font color=&quot;#ffffff&quot;&gt;Pepper Server&lt;br&gt;&lt;/font&gt;" style="text;html=1;align=center;verticalAlign=middle;whiteSpace=wrap;rounded=0;" vertex="1" parent="1">
          <mxGeometry x="665" y="600" width="110" height="30" as="geometry" />
        </mxCell>
        <mxCell id="26PYk7mdDG2Uw8Yli1L5-42" style="edgeStyle=orthogonalEdgeStyle;rounded=0;orthogonalLoop=1;jettySize=auto;html=1;entryX=0.5;entryY=0;entryDx=0;entryDy=0;strokeColor=#FFFFFF;" edge="1" parent="1" source="26PYk7mdDG2Uw8Yli1L5-32" target="26PYk7mdDG2Uw8Yli1L5-37">
          <mxGeometry relative="1" as="geometry" />
        </mxCell>
        <mxCell id="26PYk7mdDG2Uw8Yli1L5-32" value="&lt;div&gt;human_say.py&lt;/div&gt;&lt;div&gt;(Fake ASR)&lt;br&gt;&lt;/div&gt;" style="rounded=1;whiteSpace=wrap;html=1;fillColor=#FF8000;" vertex="1" parent="1">
          <mxGeometry x="390" y="345" width="120" height="60" as="geometry" />
        </mxCell>
        <mxCell id="26PYk7mdDG2Uw8Yli1L5-46" style="edgeStyle=orthogonalEdgeStyle;rounded=0;orthogonalLoop=1;jettySize=auto;html=1;entryX=1;entryY=0.5;entryDx=0;entryDy=0;startArrow=classic;startFill=1;strokeColor=#FFFFFF;" edge="1" parent="1" source="26PYk7mdDG2Uw8Yli1L5-37" target="26PYk7mdDG2Uw8Yli1L5-16">
          <mxGeometry relative="1" as="geometry" />
        </mxCell>
        <mxCell id="26PYk7mdDG2Uw8Yli1L5-37" value="NAOQI" style="rounded=1;whiteSpace=wrap;html=1;fillColor=#66B2FF;" vertex="1" parent="1">
          <mxGeometry x="250" y="405" width="120" height="60" as="geometry" />
        </mxCell>
        <mxCell id="26PYk7mdDG2Uw8Yli1L5-47" value="&lt;font color=&quot;#ffffff&quot;&gt;python human_say.py --sentence &#39;Hi&#39;&lt;/font&gt;" style="text;html=1;align=center;verticalAlign=middle;whiteSpace=wrap;rounded=0;" vertex="1" parent="1">
          <mxGeometry x="187.54" y="290" width="244.92" height="30" as="geometry" />
        </mxCell>
        <mxCell id="26PYk7mdDG2Uw8Yli1L5-48" value="&lt;font color=&quot;#ffffff&quot;&gt;Video Feed&lt;/font&gt;" style="text;html=1;align=center;verticalAlign=middle;whiteSpace=wrap;rounded=0;" vertex="1" parent="1">
          <mxGeometry x="170" y="140" width="60" height="30" as="geometry" />
        </mxCell>
        <mxCell id="26PYk7mdDG2Uw8Yli1L5-49" value="&lt;font color=&quot;#ffffff&quot;&gt;Web Browser&lt;br&gt;&lt;/font&gt;" style="text;html=1;align=center;verticalAlign=middle;whiteSpace=wrap;rounded=0;" vertex="1" parent="1">
          <mxGeometry x="230" y="200" width="60" height="30" as="geometry" />
        </mxCell>
        <mxCell id="26PYk7mdDG2Uw8Yli1L5-51" value="&lt;font color=&quot;#ffffff&quot;&gt;Insert to Memory&lt;br&gt;&lt;/font&gt;" style="text;html=1;align=center;verticalAlign=middle;whiteSpace=wrap;rounded=0;" vertex="1" parent="1">
          <mxGeometry x="277.53999999999996" y="345" width="102.46" height="30" as="geometry" />
        </mxCell>
        <mxCell id="26PYk7mdDG2Uw8Yli1L5-53" value="&lt;font color=&quot;#ffffff&quot;&gt;Text to Speech&lt;br&gt;&lt;/font&gt;" style="text;html=1;align=center;verticalAlign=middle;whiteSpace=wrap;rounded=0;" vertex="1" parent="1">
          <mxGeometry x="277.53999999999996" y="510" width="102.46" height="30" as="geometry" />
        </mxCell>
        <mxCell id="26PYk7mdDG2Uw8Yli1L5-54" value="&lt;font color=&quot;#ffffff&quot;&gt;Motion Service&lt;br&gt;&lt;/font&gt;" style="text;html=1;align=center;verticalAlign=middle;whiteSpace=wrap;rounded=0;" vertex="1" parent="1">
          <mxGeometry x="277.53999999999996" y="535" width="102.46" height="30" as="geometry" />
        </mxCell>
        <mxCell id="26PYk7mdDG2Uw8Yli1L5-56" value="&lt;font color=&quot;#ffffff&quot;&gt;Fake ASR (Memory)&lt;br&gt;&lt;/font&gt;" style="text;html=1;align=center;verticalAlign=middle;whiteSpace=wrap;rounded=0;" vertex="1" parent="1">
          <mxGeometry x="277.53999999999996" y="565" width="102.46" height="30" as="geometry" />
        </mxCell>
        <mxCell id="26PYk7mdDG2Uw8Yli1L5-59" value="&lt;font color=&quot;#ffffff&quot;&gt;Set Posture&lt;br&gt;&lt;/font&gt;" style="text;html=1;align=center;verticalAlign=middle;whiteSpace=wrap;rounded=0;" vertex="1" parent="1">
          <mxGeometry x="520" y="535" width="102.46" height="30" as="geometry" />
        </mxCell>
        <mxCell id="26PYk7mdDG2Uw8Yli1L5-61" value="&lt;font color=&quot;#ffffff&quot;&gt;ASR Retrieval&lt;br&gt;&lt;/font&gt;" style="text;html=1;align=center;verticalAlign=middle;whiteSpace=wrap;rounded=0;" vertex="1" parent="1">
          <mxGeometry x="520" y="565" width="102.46" height="30" as="geometry" />
        </mxCell>
        <mxCell id="26PYk7mdDG2Uw8Yli1L5-62" value="&lt;font color=&quot;#ffffff&quot;&gt;Dialog Execution&lt;/font&gt;" style="text;html=1;align=center;verticalAlign=middle;whiteSpace=wrap;rounded=0;" vertex="1" parent="1">
          <mxGeometry x="520" y="510" width="102.46" height="30" as="geometry" />
        </mxCell>
        <mxCell id="26PYk7mdDG2Uw8Yli1L5-65" value="&lt;font color=&quot;#ffffff&quot;&gt;Dialog Sync&lt;br&gt;&lt;/font&gt;" style="text;html=1;align=center;verticalAlign=middle;whiteSpace=wrap;rounded=0;" vertex="1" parent="1">
          <mxGeometry x="610" y="190" width="102.46" height="30" as="geometry" />
        </mxCell>
        <mxCell id="26PYk7mdDG2Uw8Yli1L5-66" value="&lt;font color=&quot;#ffffff&quot;&gt;Posture Sync&lt;br&gt;&lt;/font&gt;" style="text;html=1;align=center;verticalAlign=middle;whiteSpace=wrap;rounded=0;" vertex="1" parent="1">
          <mxGeometry x="610" y="220" width="102.46" height="30" as="geometry" />
        </mxCell>
        <mxCell id="26PYk7mdDG2Uw8Yli1L5-67" value="&lt;font color=&quot;#ffffff&quot;&gt;ASR and UI Sync&lt;br&gt;&lt;/font&gt;" style="text;html=1;align=center;verticalAlign=middle;whiteSpace=wrap;rounded=0;" vertex="1" parent="1">
          <mxGeometry x="610" y="250" width="102.46" height="30" as="geometry" />
        </mxCell>
      </root>
    </mxGraphModel>
  </diagram>
</mxfile>
